<?xml version="1.0" encoding="utf-8" standalone="no"?>
<svg xmlns="http://www.w3.org/2000/svg" width="2400" height="2400" viewBox="0 0 2400 2400" version="1.1">
	<path d="" stroke="none" fill="#3cd484" fill-rule="evenodd"/>
	<path d="M 350.880 352.250 C 350.814 352.938, 350.701 587.839, 350.630 874.253 L 350.500 1395.005 543.500 1394.753 L 736.500 1394.500 736.500 1065.500 L 736.500 736.500 1066 736 L 1395.500 735.500 1395.533 543.250 L 1395.565 351 873.283 351 C 456.187 351, 350.976 351.252, 350.880 352.250 M 1663.536 543.247 L 1663.573 735.500 1856.991 735.500 L 2050.410 735.500 2050.410 543.500 L 2050.410 351.500 1856.955 351.247 L 1663.500 350.995 1663.536 543.247 M 1004.667 1004.667 C 1004.300 1005.033, 1004 1093.233, 1004 1200.667 L 1004 1396 1199.465 1396 C 1384.642 1396, 1394.973 1395.908, 1395.753 1394.250 C 1396.360 1392.960, 1396.699 1012.710, 1396.100 1005.250 C 1396.020 1004.255, 1356.213 1004, 1200.667 1004 C 1093.233 1004, 1005.033 1004.300, 1004.667 1004.667 M 1686.536 1004.970 L 1663.572 1005.500 1663.576 1334.500 L 1663.579 1663.500 1334.157 1664 L 1004.735 1664.500 1004.368 1856.751 L 1004.001 2049.002 1526.751 2048.751 L 2049.500 2048.500 2049.500 1526.500 L 2049.500 1004.500 1879.500 1004.470 C 1786 1004.454, 1699.166 1004.679, 1686.536 1004.970 M 350.512 1856.250 L 350.524 2048.500 543.537 2048.753 L 736.550 2049.005 736.411 1857.253 C 736.334 1751.789, 736.211 1665.162, 736.136 1664.750 C 736.061 1664.338, 649.263 1664, 543.250 1664 L 350.500 1664 350.512 1856.250" stroke="none" fill="#3ccc84" fill-rule="evenodd"/>
</svg>